<svg width="120" height="120" viewBox="0 0 120 120" fill="none" xmlns="http://www.w3.org/2000/svg">
<path d="M60 120C93.137 120 120 93.137 120 60C120 26.8629 93.137 0 60 0C26.8629 0 0 26.8629 0 60C0 93.137 26.8629 120 60 120Z" fill="white"/>
<path d="M108.149 95.7576C102.553 88.2658 95.287 82.1825 86.928 77.9911C78.5691 73.7997 69.3477 71.6157 59.9968 71.6128C50.6458 71.6099 41.4231 73.788 33.0615 77.9742C24.6999 82.1603 17.43 88.2391 11.8295 95.7274C17.4015 103.254 24.6596 109.37 33.0217 113.585C41.3838 117.8 50.6172 119.997 59.9816 120C69.346 120.003 78.5808 117.812 86.9456 113.602C95.3103 109.392 102.572 103.28 108.149 95.7576Z" fill="#C4C4C4"/>
<path d="M60 63.8708C72.8272 63.8708 83.2258 53.4722 83.2258 40.645C83.2258 27.8177 72.8272 17.4192 60 17.4192C47.1727 17.4192 36.7742 27.8177 36.7742 40.645C36.7742 53.4722 47.1727 63.8708 60 63.8708Z" fill="#C4C4C4"/>
</svg>
